<mxfile host="app.diagrams.net" agent="Mozilla/5.0 (Windows NT 10.0; Win64; x64) AppleWebKit/537.36 (KHTML, like Gecko) Chrome/138.0.0.0 Safari/537.36 OPR/122.0.0.0" version="28.2.5">
  <diagram name="Страница — 1" id="MQuCKsTkF0hV8LhLmS5N">
    <mxGraphModel dx="1372" dy="744" grid="1" gridSize="10" guides="1" tooltips="1" connect="1" arrows="1" fold="1" page="1" pageScale="1" pageWidth="827" pageHeight="1169" math="0" shadow="0">
      <root>
        <mxCell id="0" />
        <mxCell id="1" parent="0" />
        <mxCell id="EHXcdM6yGb4Hflx0Ipde-5" value="" style="edgeStyle=orthogonalEdgeStyle;rounded=0;orthogonalLoop=1;jettySize=auto;html=1;curved=1;" edge="1" parent="1" source="EHXcdM6yGb4Hflx0Ipde-1" target="EHXcdM6yGb4Hflx0Ipde-4">
          <mxGeometry relative="1" as="geometry" />
        </mxCell>
        <mxCell id="EHXcdM6yGb4Hflx0Ipde-1" value="ДонШина" style="ellipse;whiteSpace=wrap;html=1;" vertex="1" parent="1">
          <mxGeometry x="190" y="240" width="120" height="80" as="geometry" />
        </mxCell>
        <mxCell id="EHXcdM6yGb4Hflx0Ipde-2" value="Настройки загрузки" style="rounded=1;whiteSpace=wrap;html=1;" vertex="1" parent="1">
          <mxGeometry x="620" y="120" width="150" height="30" as="geometry" />
        </mxCell>
        <mxCell id="EHXcdM6yGb4Hflx0Ipde-10" value="" style="edgeStyle=orthogonalEdgeStyle;rounded=0;orthogonalLoop=1;jettySize=auto;html=1;curved=1;entryX=0;entryY=0.5;entryDx=0;entryDy=0;" edge="1" parent="1" source="EHXcdM6yGb4Hflx0Ipde-3" target="EHXcdM6yGb4Hflx0Ipde-8">
          <mxGeometry relative="1" as="geometry" />
        </mxCell>
        <mxCell id="EHXcdM6yGb4Hflx0Ipde-32" style="edgeStyle=orthogonalEdgeStyle;rounded=0;orthogonalLoop=1;jettySize=auto;html=1;curved=1;" edge="1" parent="1" source="EHXcdM6yGb4Hflx0Ipde-3" target="EHXcdM6yGb4Hflx0Ipde-15">
          <mxGeometry relative="1" as="geometry" />
        </mxCell>
        <mxCell id="EHXcdM6yGb4Hflx0Ipde-33" style="edgeStyle=orthogonalEdgeStyle;rounded=0;orthogonalLoop=1;jettySize=auto;html=1;entryX=0;entryY=0.5;entryDx=0;entryDy=0;curved=1;" edge="1" parent="1" source="EHXcdM6yGb4Hflx0Ipde-3" target="EHXcdM6yGb4Hflx0Ipde-11">
          <mxGeometry relative="1" as="geometry">
            <Array as="points">
              <mxPoint x="880" y="315" />
              <mxPoint x="880" y="145" />
            </Array>
          </mxGeometry>
        </mxCell>
        <mxCell id="EHXcdM6yGb4Hflx0Ipde-34" style="edgeStyle=orthogonalEdgeStyle;rounded=0;orthogonalLoop=1;jettySize=auto;html=1;entryX=0;entryY=0.5;entryDx=0;entryDy=0;curved=1;" edge="1" parent="1" source="EHXcdM6yGb4Hflx0Ipde-3" target="EHXcdM6yGb4Hflx0Ipde-16">
          <mxGeometry relative="1" as="geometry">
            <Array as="points">
              <mxPoint x="880" y="315" />
              <mxPoint x="880" y="265" />
            </Array>
          </mxGeometry>
        </mxCell>
        <mxCell id="EHXcdM6yGb4Hflx0Ipde-35" style="edgeStyle=orthogonalEdgeStyle;rounded=0;orthogonalLoop=1;jettySize=auto;html=1;curved=1;" edge="1" parent="1" source="EHXcdM6yGb4Hflx0Ipde-3" target="EHXcdM6yGb4Hflx0Ipde-13">
          <mxGeometry relative="1" as="geometry" />
        </mxCell>
        <mxCell id="EHXcdM6yGb4Hflx0Ipde-36" style="edgeStyle=orthogonalEdgeStyle;rounded=0;orthogonalLoop=1;jettySize=auto;html=1;entryX=0;entryY=0.5;entryDx=0;entryDy=0;curved=1;" edge="1" parent="1" source="EHXcdM6yGb4Hflx0Ipde-3" target="EHXcdM6yGb4Hflx0Ipde-14">
          <mxGeometry relative="1" as="geometry" />
        </mxCell>
        <mxCell id="EHXcdM6yGb4Hflx0Ipde-3" value="НастройкиЗагрузкиXML" style="rounded=1;whiteSpace=wrap;html=1;" vertex="1" parent="1">
          <mxGeometry x="580" y="300" width="170" height="30" as="geometry" />
        </mxCell>
        <mxCell id="EHXcdM6yGb4Hflx0Ipde-6" style="edgeStyle=orthogonalEdgeStyle;rounded=0;orthogonalLoop=1;jettySize=auto;html=1;entryX=0;entryY=0.5;entryDx=0;entryDy=0;curved=1;" edge="1" parent="1" source="EHXcdM6yGb4Hflx0Ipde-4" target="EHXcdM6yGb4Hflx0Ipde-2">
          <mxGeometry relative="1" as="geometry" />
        </mxCell>
        <mxCell id="EHXcdM6yGb4Hflx0Ipde-7" style="edgeStyle=orthogonalEdgeStyle;rounded=0;orthogonalLoop=1;jettySize=auto;html=1;curved=1;" edge="1" parent="1" source="EHXcdM6yGb4Hflx0Ipde-4" target="EHXcdM6yGb4Hflx0Ipde-3">
          <mxGeometry relative="1" as="geometry" />
        </mxCell>
        <mxCell id="EHXcdM6yGb4Hflx0Ipde-4" value="Загрузка" style="rounded=1;whiteSpace=wrap;html=1;" vertex="1" parent="1">
          <mxGeometry x="414" y="170" width="120" height="60" as="geometry" />
        </mxCell>
        <mxCell id="EHXcdM6yGb4Hflx0Ipde-8" value="Поставщик" style="rounded=1;whiteSpace=wrap;html=1;" vertex="1" parent="1">
          <mxGeometry x="960" y="90" width="180" height="30" as="geometry" />
        </mxCell>
        <mxCell id="EHXcdM6yGb4Hflx0Ipde-18" value="" style="edgeStyle=orthogonalEdgeStyle;rounded=0;orthogonalLoop=1;jettySize=auto;html=1;curved=1;" edge="1" parent="1" source="EHXcdM6yGb4Hflx0Ipde-11" target="EHXcdM6yGb4Hflx0Ipde-17">
          <mxGeometry relative="1" as="geometry" />
        </mxCell>
        <mxCell id="EHXcdM6yGb4Hflx0Ipde-21" style="edgeStyle=orthogonalEdgeStyle;rounded=0;orthogonalLoop=1;jettySize=auto;html=1;entryX=0;entryY=0.5;entryDx=0;entryDy=0;curved=1;" edge="1" parent="1" source="EHXcdM6yGb4Hflx0Ipde-11" target="EHXcdM6yGb4Hflx0Ipde-19">
          <mxGeometry relative="1" as="geometry" />
        </mxCell>
        <mxCell id="EHXcdM6yGb4Hflx0Ipde-22" style="edgeStyle=orthogonalEdgeStyle;rounded=0;orthogonalLoop=1;jettySize=auto;html=1;entryX=0;entryY=0.5;entryDx=0;entryDy=0;curved=1;" edge="1" parent="1" source="EHXcdM6yGb4Hflx0Ipde-11" target="EHXcdM6yGb4Hflx0Ipde-20">
          <mxGeometry relative="1" as="geometry" />
        </mxCell>
        <mxCell id="EHXcdM6yGb4Hflx0Ipde-11" value="ВидТранспорта" style="rounded=1;whiteSpace=wrap;html=1;" vertex="1" parent="1">
          <mxGeometry x="960" y="130" width="170" height="30" as="geometry" />
        </mxCell>
        <mxCell id="EHXcdM6yGb4Hflx0Ipde-29" style="edgeStyle=orthogonalEdgeStyle;rounded=0;orthogonalLoop=1;jettySize=auto;html=1;entryX=0;entryY=0.5;entryDx=0;entryDy=0;" edge="1" parent="1" source="EHXcdM6yGb4Hflx0Ipde-13" target="EHXcdM6yGb4Hflx0Ipde-28">
          <mxGeometry relative="1" as="geometry" />
        </mxCell>
        <mxCell id="EHXcdM6yGb4Hflx0Ipde-13" value="ВидНоменклатуры" style="rounded=1;whiteSpace=wrap;html=1;" vertex="1" parent="1">
          <mxGeometry x="960" y="330" width="170" height="30" as="geometry" />
        </mxCell>
        <mxCell id="EHXcdM6yGb4Hflx0Ipde-14" value="Активный" style="rounded=1;whiteSpace=wrap;html=1;" vertex="1" parent="1">
          <mxGeometry x="960" y="380" width="170" height="30" as="geometry" />
        </mxCell>
        <mxCell id="EHXcdM6yGb4Hflx0Ipde-31" value="" style="edgeStyle=orthogonalEdgeStyle;rounded=0;orthogonalLoop=1;jettySize=auto;html=1;" edge="1" parent="1" source="EHXcdM6yGb4Hflx0Ipde-15" target="EHXcdM6yGb4Hflx0Ipde-30">
          <mxGeometry relative="1" as="geometry" />
        </mxCell>
        <mxCell id="EHXcdM6yGb4Hflx0Ipde-15" value="Форма списка" style="rounded=1;whiteSpace=wrap;html=1;" vertex="1" parent="1">
          <mxGeometry x="400" y="400" width="170" height="30" as="geometry" />
        </mxCell>
        <mxCell id="EHXcdM6yGb4Hflx0Ipde-26" style="edgeStyle=orthogonalEdgeStyle;rounded=0;orthogonalLoop=1;jettySize=auto;html=1;" edge="1" parent="1" source="EHXcdM6yGb4Hflx0Ipde-16" target="EHXcdM6yGb4Hflx0Ipde-25">
          <mxGeometry relative="1" as="geometry" />
        </mxCell>
        <mxCell id="EHXcdM6yGb4Hflx0Ipde-16" value="ОбработкаЗагрузки" style="rounded=1;whiteSpace=wrap;html=1;" vertex="1" parent="1">
          <mxGeometry x="960" y="250" width="170" height="30" as="geometry" />
        </mxCell>
        <mxCell id="EHXcdM6yGb4Hflx0Ipde-17" value="FTP-ресурс" style="rounded=1;whiteSpace=wrap;html=1;" vertex="1" parent="1">
          <mxGeometry x="1200" y="100" width="170" height="30" as="geometry" />
        </mxCell>
        <mxCell id="EHXcdM6yGb4Hflx0Ipde-19" value="Почтовые сообщения" style="rounded=1;whiteSpace=wrap;html=1;" vertex="1" parent="1">
          <mxGeometry x="1200" y="150" width="170" height="30" as="geometry" />
        </mxCell>
        <mxCell id="EHXcdM6yGb4Hflx0Ipde-20" value="Локальный или сетевой каталог" style="rounded=1;whiteSpace=wrap;html=1;" vertex="1" parent="1">
          <mxGeometry x="1200" y="200" width="170" height="30" as="geometry" />
        </mxCell>
        <mxCell id="EHXcdM6yGb4Hflx0Ipde-25" value="27 (шт)&lt;br&gt;ЗагрузкаОтПоставщиков" style="rounded=1;whiteSpace=wrap;html=1;" vertex="1" parent="1">
          <mxGeometry x="1200" y="250" width="170" height="30" as="geometry" />
        </mxCell>
        <mxCell id="EHXcdM6yGb4Hflx0Ipde-28" value="СправочникСсылка.ВидыНоменклатуры" style="rounded=1;whiteSpace=wrap;html=1;" vertex="1" parent="1">
          <mxGeometry x="1200" y="330" width="240" height="30" as="geometry" />
        </mxCell>
        <mxCell id="EHXcdM6yGb4Hflx0Ipde-30" value="Условное оформление&lt;div&gt;24 часа с последнего прихода&lt;/div&gt;" style="rounded=1;whiteSpace=wrap;html=1;" vertex="1" parent="1">
          <mxGeometry x="390" y="520" width="190" height="50" as="geometry" />
        </mxCell>
      </root>
    </mxGraphModel>
  </diagram>
</mxfile>
